<?xml version="1.0" standalone="no"?><!DOCTYPE svg PUBLIC "-//W3C//DTD SVG 1.1//EN" "http://www.w3.org/Graphics/SVG/1.1/DTD/svg11.dtd"><svg t="1649393399363" class="icon" viewBox="0 0 1024 1024" version="1.1" xmlns="http://www.w3.org/2000/svg" p-id="1514" xmlns:xlink="http://www.w3.org/1999/xlink" width="200" height="200"><defs><style type="text/css">@font-face { font-family: feedback-iconfont; src: url("//at.alicdn.com/t/font_1031158_u69w8yhxdu.woff2?t=1630033759944") format("woff2"), url("//at.alicdn.com/t/font_1031158_u69w8yhxdu.woff?t=1630033759944") format("woff"), url("//at.alicdn.com/t/font_1031158_u69w8yhxdu.ttf?t=1630033759944") format("truetype"); }
</style></defs><path d="M930.4 388c-8-5.9-16.3-12-18.3-18.2-2.3-7 6.7-16.9 19.5-30.1 18.1-18.6 48.3-49.7 15.4-85.8-34.8-38.2-76.7-26.5-99.1-20.3-2 0.6-4.3 1.2-6.4 1.7-4.7-23.5-20.1-62-49.6-72.1-13.5-4.5-34.3-4.9-57.5 19.4-34.8 36.5-43.9 76.3-45.9 100.6-78.2-31.3-186.6-20.5-284.7 36.2-8.6 5-11.5 16-6.6 24.6 5 8.6 16 11.6 24.6 6.6 2.3-1.3 4.6-2.4 6.8-3.7L449.1 716c-26.7 1.9-52.1 0.2-75.1-5.4L356.6 398c3.7-3.3 7.4-6.7 11.3-10 7.7-6.4 8.7-17.7 2.4-25.3-6.4-7.7-17.7-8.7-25.3-2.4-109 90.4-148.7 215.3-96.4 303.8 15.5 26.3 38.2 46.6 65.4 61.2-3.5 11.8-29.4 91.7-83.8 101.3-3.2 0.5-5.1 0.5-5.6 0.8-1-3-1.4-10.3-1.7-15.3-0.8-14.2-1.8-31.8-13.3-45.9-18.7-23-47.6-17.2-70.8-12.6-33.2 6.6-35.5 3.7-38.4-7.6-6.9-26.6 6.4-40.9 26-58.2 11-9.7 21.4-18.9 21.1-32.9-0.1-5.6-2.2-13.7-11.2-21-14.9-12-30.4-37.3-27.3-49.6 1.6-6.5 11.4-9.6 19.3-11.1 16.6-3.1 33.2-3.2 49.2-0.2 9.8 1.9 19.2-4.6 21-14.4s-4.6-19.2-14.4-21c-20.5-3.8-41.5-3.8-62.4 0.2-33 6.1-44.1 23.9-47.6 37.6-7.6 30.2 16.2 64.1 33.4 80.8-1.6 1.5-3.4 3.1-4.9 4.4-17.5 15.4-50 44.2-37 94.2 12.3 47.3 54.8 38.9 80.3 33.8 18.1-3.6 31.3-5.7 35.9 0 4.1 5.1 4.7 15.3 5.3 25.2 0.8 14.6 1.8 31.1 14.9 41.5 6.3 5 13.9 7.4 23.3 7.4 3.5 0 7.3-0.4 11.3-1.1 71-12.5 102.8-96.9 110.8-122.1 25.2 8.3 53.2 12.5 82.6 12.5 61.3 0 129-18.2 192.4-55.6 40-23.6 74.7-52.5 103.2-85.8 6.5-7.5 5.6-18.9-2-25.4-7.6-6.4-18.9-5.6-25.4 2l-0.2 0.2-14.9-268.3c25.5 11.9 46.5 29.4 60.2 52.7 25.3 42.9 23.5 98.1-5 155.4-4.4 8.9-0.8 19.7 8.1 24.1 2.6 1.3 5.3 1.9 8 1.9 6.6 0 13-3.7 16.1-10 33.6-67.5 35-136.7 3.8-189.7-12.5-21.1-29.7-38.4-50-52 0-0.2 0.1-0.4 0-0.5-0.2-2.1-5.1-50.6 36.3-94.1 5.5-5.8 13.5-12.2 19.8-10.1 12 4.1 24.7 30.9 26.7 49.9 1.2 11.5 6.9 17.6 11.5 20.8 11.5 7.9 24.9 4.2 39.1 0.3 25.2-7 44.4-10.4 62.9 9.9 7.8 8.6 9 12.1-14.6 36.4-16.5 17-37.1 38.1-28 66.3 5.6 17.3 19.8 27.8 31.3 36.2 4.5 3.3 11.2 8.2 12.2 8.5 0 0-0.6 1.9-4.1 5.6-20.8 22.3-54.9 25.3-79.8 23.9-10.1-0.5-18.4 7-19 17-0.6 9.9 7 18.4 17 19 4.2 0.2 8.3 0.4 12.3 0.4 41.1 0 74.1-12.2 95.9-35.7 10.1-10.9 14.5-21.5 13.5-32.5-1.9-16.4-15.2-26.2-26.9-34.8zM279.6 645.8c-34.6-58.7-16-141.8 43-212.6l14.7 264.3c-24.4-11.9-44.4-29.1-57.7-51.7z m205.3 65.6l-21.1-381.8c25.3-10.8 50.7-18.6 75.6-23.2l21.1 381.3c-25.4 11.1-50.8 19-75.6 23.7z m119-45.6c-2.8 1.6-5.6 3-8.3 4.5l-20.4-368.2c25.1-1.6 49.1 0 71 5l17.5 315c-18.2 16.1-38 30.9-59.8 43.7z" fill="#515151" p-id="1515"></path></svg>